<mxfile host="app.diagrams.net" agent="Mozilla/5.0 (Windows NT 10.0; Win64; x64) AppleWebKit/537.36 (KHTML, like Gecko) Chrome/141.0.0.0 Safari/537.36" version="28.2.8">
  <diagram id="bai1" name="Bai1">
    <mxGraphModel dx="1281" dy="527" grid="1" gridSize="10" guides="1" tooltips="1" connect="1" arrows="1" fold="1" page="1" pageScale="1" pageWidth="1169" pageHeight="827" math="0" shadow="0">
      <root>
        <mxCell id="0" />
        <mxCell id="1" parent="0" />
        <mxCell id="actor_user" value="Người dùng" style="shape=umlActor;verticalLabelPosition=bottom;verticalAlign=top;html=1;" parent="1" vertex="1">
          <mxGeometry x="60" y="240" width="60" height="100" as="geometry" />
        </mxCell>
        <mxCell id="assoc_user_detail" style="endArrow=none;html=1;" parent="1" source="actor_user" target="uc_detail" edge="1">
          <mxGeometry relative="1" as="geometry" />
        </mxCell>
        <mxCell id="sysBoundary" value="" style="shape=rectangle;whiteSpace=wrap;html=1;strokeWidth=2;rounded=0;" parent="1" vertex="1">
          <mxGeometry x="210" y="90" width="700" height="420" as="geometry" />
        </mxCell>
        <mxCell id="uc_detail" value="Xem chi tiết phim" style="ellipse;whiteSpace=wrap;html=1;aspect=fixed;" parent="sysBoundary" vertex="1">
          <mxGeometry x="160" y="150" width="200" height="80" as="geometry" />
        </mxCell>
        <mxCell id="uc_trailer" value="Xem trailer" style="ellipse;whiteSpace=wrap;html=1;aspect=fixed;" parent="sysBoundary" vertex="1">
          <mxGeometry x="420" y="110" width="170" height="70" as="geometry" />
        </mxCell>
        <mxCell id="uc_comment" value="Xem bình luận" style="ellipse;whiteSpace=wrap;html=1;aspect=fixed;" parent="sysBoundary" vertex="1">
          <mxGeometry x="420" y="230" width="190" height="70" as="geometry" />
        </mxCell>
        <mxCell id="YYpEZMXe5dMlK3zYKx7L-3" value="«extend»" style="endArrow=open;dashed=1;html=1;fontSize=12;labelBackgroundColor=#ffffff;exitX=0;exitY=0.5;exitDx=0;exitDy=0;entryX=0.959;entryY=0.7;entryDx=0;entryDy=0;entryPerimeter=0;" parent="sysBoundary" source="uc_comment" target="uc_detail" edge="1">
          <mxGeometry width="160" relative="1" as="geometry">
            <mxPoint x="300" y="180" as="sourcePoint" />
            <mxPoint x="460" y="180" as="targetPoint" />
            <mxPoint y="-10" as="offset" />
          </mxGeometry>
        </mxCell>
        <mxCell id="YYpEZMXe5dMlK3zYKx7L-4" value="«extend»" style="endArrow=open;dashed=1;html=1;fontSize=12;labelBackgroundColor=#ffffff;exitX=0;exitY=0.5;exitDx=0;exitDy=0;entryX=0.963;entryY=0.3;entryDx=0;entryDy=0;entryPerimeter=0;" parent="sysBoundary" source="uc_trailer" target="uc_detail" edge="1">
          <mxGeometry width="160" relative="1" as="geometry">
            <mxPoint x="468" y="369" as="sourcePoint" />
            <mxPoint x="400" y="310" as="targetPoint" />
            <mxPoint y="-10" as="offset" />
          </mxGeometry>
        </mxCell>
        <mxCell id="YYpEZMXe5dMlK3zYKx7L-5" value="Hệ thống xem phim" style="text;html=1;align=center;verticalAlign=middle;whiteSpace=wrap;rounded=0;" parent="sysBoundary" vertex="1">
          <mxGeometry x="240" y="10" width="180" height="30" as="geometry" />
        </mxCell>
      </root>
    </mxGraphModel>
  </diagram>
</mxfile>
